<?xml version="1.0" encoding="UTF-8"?>
<!--Generator: Apple Native CoreSVG 175-->
<!DOCTYPE svg
PUBLIC "-//W3C//DTD SVG 1.1//EN"
       "http://www.w3.org/Graphics/SVG/1.1/DTD/svg11.dtd">
<svg version="1.1" xmlns="http://www.w3.org/2000/svg" xmlns:xlink="http://www.w3.org/1999/xlink" width="3300" height="2200">
 <!--glyph: "", point size: 100.0, font version: "17.1d1e1", template writer version: "65.1"-->
 <style>.multicolor-0:secondaryLabelColor {fill:#8A8A8E;opacity:1.0}
.multicolor-1:labelColor {fill:#212121;opacity:1.0}
.multicolor-2:labelColor {fill:#212121;opacity:1.0}

.hierarchical-0:primary {fill:#212121}
.hierarchical-1:primary {fill:#212121}
.hierarchical-2:primary {fill:#212121}

.SFSymbolsPreview212121 {fill:#212121;opacity:1.0}
.SFSymbolsPreview8A8A8E {fill:#8A8A8E;opacity:1.0}
</style>
 <g id="Notes">
  <rect height="2200" id="artboard" style="fill:white;opacity:1" width="3300" x="0" y="0"/>
  <line style="fill:none;stroke:black;opacity:1;stroke-width:0.5;" x1="263" x2="3036" y1="292" y2="292"/>
  <text style="stroke:none;fill:black;font-family:sans-serif;font-size:13;font-weight:bold;" transform="matrix(1 0 0 1 263 322)">Weight/Scale Variations</text>
  <text style="stroke:none;fill:black;font-family:sans-serif;font-size:13;text-anchor:middle;" transform="matrix(1 0 0 1 559.711 322)">Ultralight</text>
  <text style="stroke:none;fill:black;font-family:sans-serif;font-size:13;text-anchor:middle;" transform="matrix(1 0 0 1 856.422 322)">Thin</text>
  <text style="stroke:none;fill:black;font-family:sans-serif;font-size:13;text-anchor:middle;" transform="matrix(1 0 0 1 1153.13 322)">Light</text>
  <text style="stroke:none;fill:black;font-family:sans-serif;font-size:13;text-anchor:middle;" transform="matrix(1 0 0 1 1449.84 322)">Regular</text>
  <text style="stroke:none;fill:black;font-family:sans-serif;font-size:13;text-anchor:middle;" transform="matrix(1 0 0 1 1746.56 322)">Medium</text>
  <text style="stroke:none;fill:black;font-family:sans-serif;font-size:13;text-anchor:middle;" transform="matrix(1 0 0 1 2043.27 322)">Semibold</text>
  <text style="stroke:none;fill:black;font-family:sans-serif;font-size:13;text-anchor:middle;" transform="matrix(1 0 0 1 2339.98 322)">Bold</text>
  <text style="stroke:none;fill:black;font-family:sans-serif;font-size:13;text-anchor:middle;" transform="matrix(1 0 0 1 2636.69 322)">Heavy</text>
  <text style="stroke:none;fill:black;font-family:sans-serif;font-size:13;text-anchor:middle;" transform="matrix(1 0 0 1 2933.4 322)">Black</text>
  <line style="fill:none;stroke:black;opacity:1;stroke-width:0.5;" x1="263" x2="3036" y1="1903" y2="1903"/>
  <g transform="matrix(1 0 0 1 263 1933)">
   <path d="M9.24805 0.830078Q10.8691 0.830078 12.2949 0.214844Q13.7207-0.400391 14.8096-1.49414Q15.8984-2.58789 16.5186-4.01367Q17.1387-5.43945 17.1387-7.05078Q17.1387-8.66211 16.5186-10.0879Q15.8984-11.5137 14.8047-12.6074Q13.7109-13.7012 12.2852-14.3164Q10.8594-14.9316 9.23828-14.9316Q7.62695-14.9316 6.20117-14.3164Q4.77539-13.7012 3.69141-12.6074Q2.60742-11.5137 1.9873-10.0879Q1.36719-8.66211 1.36719-7.05078Q1.36719-5.43945 1.9873-4.01367Q2.60742-2.58789 3.69629-1.49414Q4.78516-0.400391 6.21094 0.214844Q7.63672 0.830078 9.24805 0.830078ZM9.24805-0.654297Q7.91992-0.654297 6.7627-1.14746Q5.60547-1.64062 4.73145-2.51953Q3.85742-3.39844 3.36426-4.56055Q2.87109-5.72266 2.87109-7.05078Q2.87109-8.37891 3.35938-9.54102Q3.84766-10.7031 4.72168-11.582Q5.5957-12.4609 6.75293-12.9541Q7.91016-13.4473 9.23828-13.4473Q10.5762-13.4473 11.7334-12.9541Q12.8906-12.4609 13.7695-11.582Q14.6484-10.7031 15.1465-9.54102Q15.6445-8.37891 15.6445-7.05078Q15.6445-5.72266 15.1514-4.56055Q14.6582-3.39844 13.7842-2.51953Q12.9102-1.64062 11.748-1.14746Q10.5859-0.654297 9.24805-0.654297ZM5.6543-7.05078Q5.6543-6.72852 5.85938-6.52832Q6.06445-6.32812 6.40625-6.32812L8.51562-6.32812L8.51562-4.20898Q8.51562-3.88672 8.71094-3.67676Q8.90625-3.4668 9.23828-3.4668Q9.56055-3.4668 9.77051-3.67676Q9.98047-3.88672 9.98047-4.20898L9.98047-6.32812L12.0898-6.32812Q12.4219-6.32812 12.627-6.52832Q12.832-6.72852 12.832-7.05078Q12.832-7.38281 12.627-7.58789Q12.4219-7.79297 12.0898-7.79297L9.98047-7.79297L9.98047-9.90234Q9.98047-10.2344 9.77051-10.4443Q9.56055-10.6543 9.23828-10.6543Q8.90625-10.6543 8.71094-10.4443Q8.51562-10.2344 8.51562-9.90234L8.51562-7.79297L6.40625-7.79297Q6.06445-7.79297 5.85938-7.58789Q5.6543-7.38281 5.6543-7.05078Z"/>
  </g>
  <g transform="matrix(1 0 0 1 281.867 1933)">
   <path d="M11.709 2.91016Q13.75 2.91016 15.5518 2.12891Q17.3535 1.34766 18.7305-0.0292969Q20.1074-1.40625 20.8887-3.20801Q21.6699-5.00977 21.6699-7.05078Q21.6699-9.0918 20.8887-10.8936Q20.1074-12.6953 18.7305-14.0723Q17.3535-15.4492 15.5469-16.2305Q13.7402-17.0117 11.6992-17.0117Q9.6582-17.0117 7.85645-16.2305Q6.05469-15.4492 4.68262-14.0723Q3.31055-12.6953 2.5293-10.8936Q1.74805-9.0918 1.74805-7.05078Q1.74805-5.00977 2.5293-3.20801Q3.31055-1.40625 4.6875-0.0292969Q6.06445 1.34766 7.86621 2.12891Q9.66797 2.91016 11.709 2.91016ZM11.709 1.25Q9.98047 1.25 8.47656 0.605469Q6.97266-0.0390625 5.83496-1.17676Q4.69727-2.31445 4.05762-3.81836Q3.41797-5.32227 3.41797-7.05078Q3.41797-8.7793 4.05762-10.2832Q4.69727-11.7871 5.83008-12.9297Q6.96289-14.0723 8.4668-14.7119Q9.9707-15.3516 11.6992-15.3516Q13.4277-15.3516 14.9316-14.7119Q16.4355-14.0723 17.5781-12.9297Q18.7207-11.7871 19.3652-10.2832Q20.0098-8.7793 20.0098-7.05078Q20.0098-5.32227 19.3701-3.81836Q18.7305-2.31445 17.5928-1.17676Q16.4551-0.0390625 14.9463 0.605469Q13.4375 1.25 11.709 1.25ZM7.17773-7.05078Q7.17773-6.69922 7.41211-6.47461Q7.64648-6.25 8.01758-6.25L10.8887-6.25L10.8887-3.36914Q10.8887-2.99805 11.1133-2.76855Q11.3379-2.53906 11.6895-2.53906Q12.0605-2.53906 12.29-2.76855Q12.5195-2.99805 12.5195-3.36914L12.5195-6.25L15.4004-6.25Q15.7715-6.25 16.001-6.47461Q16.2305-6.69922 16.2305-7.05078Q16.2305-7.42188 16.001-7.65137Q15.7715-7.88086 15.4004-7.88086L12.5195-7.88086L12.5195-10.752Q12.5195-11.1328 12.29-11.3623Q12.0605-11.5918 11.6895-11.5918Q11.3379-11.5918 11.1133-11.3574Q10.8887-11.123 10.8887-10.752L10.8887-7.88086L8.01758-7.88086Q7.63672-7.88086 7.40723-7.65137Q7.17773-7.42188 7.17773-7.05078Z"/>
  </g>
  <g transform="matrix(1 0 0 1 305.646 1933)">
   <path d="M14.9707 5.66406Q17.0605 5.66406 18.96 5.01465Q20.8594 4.36523 22.4512 3.19336Q24.043 2.02148 25.2197 0.429688Q26.3965-1.16211 27.0459-3.06641Q27.6953-4.9707 27.6953-7.05078Q27.6953-9.14062 27.0459-11.04Q26.3965-12.9395 25.2197-14.5312Q24.043-16.123 22.4512-17.2998Q20.8594-18.4766 18.9551-19.126Q17.0508-19.7754 14.9609-19.7754Q12.8711-19.7754 10.9717-19.126Q9.07227-18.4766 7.48535-17.2998Q5.89844-16.123 4.72168-14.5312Q3.54492-12.9395 2.90039-11.04Q2.25586-9.14062 2.25586-7.05078Q2.25586-4.9707 2.90527-3.06641Q3.55469-1.16211 4.72656 0.429688Q5.89844 2.02148 7.49023 3.19336Q9.08203 4.36523 10.9814 5.01465Q12.8809 5.66406 14.9707 5.66406ZM14.9707 3.84766Q13.1641 3.84766 11.5283 3.2959Q9.89258 2.74414 8.53516 1.74805Q7.17773 0.751953 6.17676-0.610352Q5.17578-1.97266 4.62891-3.6084Q4.08203-5.24414 4.08203-7.05078Q4.08203-8.86719 4.62891-10.5029Q5.17578-12.1387 6.17188-13.501Q7.16797-14.8633 8.52539-15.8594Q9.88281-16.8555 11.5186-17.4023Q13.1543-17.9492 14.9609-17.9492Q16.7773-17.9492 18.4131-17.4023Q20.0488-16.8555 21.4111-15.8594Q22.7734-14.8633 23.7695-13.501Q24.7656-12.1387 25.3174-10.5029Q25.8691-8.86719 25.8691-7.05078Q25.8789-5.24414 25.332-3.6084Q24.7852-1.97266 23.7842-0.610352Q22.7832 0.751953 21.4209 1.74805Q20.0586 2.74414 18.4229 3.2959Q16.7871 3.84766 14.9707 3.84766ZM9.19922-7.05078Q9.19922-6.66992 9.45801-6.4209Q9.7168-6.17188 10.1172-6.17188L14.0625-6.17188L14.0625-2.2168Q14.0625-1.81641 14.3115-1.55762Q14.5605-1.29883 14.9512-1.29883Q15.3516-1.29883 15.6104-1.55273Q15.8691-1.80664 15.8691-2.2168L15.8691-6.17188L19.8242-6.17188Q20.2246-6.17188 20.4785-6.4209Q20.7324-6.66992 20.7324-7.05078Q20.7324-7.46094 20.4785-7.71484Q20.2246-7.96875 19.8242-7.96875L15.8691-7.96875L15.8691-11.9141Q15.8691-12.3242 15.6104-12.583Q15.3516-12.8418 14.9512-12.8418Q14.5605-12.8418 14.3115-12.583Q14.0625-12.3242 14.0625-11.9141L14.0625-7.96875L10.1172-7.96875Q9.70703-7.96875 9.45312-7.71484Q9.19922-7.46094 9.19922-7.05078Z"/>
  </g>
  <text style="stroke:none;fill:black;font-family:sans-serif;font-size:13;font-weight:bold;" transform="matrix(1 0 0 1 263 1953)">Design Variations</text>
  <text style="stroke:none;fill:black;font-family:sans-serif;font-size:13;" transform="matrix(1 0 0 1 263 1971)">Symbols are supported in up to nine weights and three scales.</text>
  <text style="stroke:none;fill:black;font-family:sans-serif;font-size:13;" transform="matrix(1 0 0 1 263 1989)">For optimal layout with text and other symbols, vertically align</text>
  <text style="stroke:none;fill:black;font-family:sans-serif;font-size:13;" transform="matrix(1 0 0 1 263 2007)">symbols with the adjacent text.</text>
  <line style="fill:none;stroke:#00AEEF;stroke-width:0.5;opacity:1.0;" x1="776" x2="776" y1="1919" y2="1933"/>
  <g transform="matrix(1 0 0 1 776 1933)">
   <path d="M3.31055 0.15625Q3.70117 0.15625 3.91602-0.00976562Q4.13086-0.175781 4.26758-0.585938L5.52734-4.0332L11.2891-4.0332L12.5488-0.585938Q12.6855-0.175781 12.9004-0.00976562Q13.1152 0.15625 13.4961 0.15625Q13.8867 0.15625 14.1162-0.0585938Q14.3457-0.273438 14.3457-0.644531Q14.3457-0.869141 14.2383-1.17188L9.6582-13.3691Q9.48242-13.8184 9.17969-14.043Q8.87695-14.2676 8.4082-14.2676Q7.5-14.2676 7.17773-13.3789L2.59766-1.16211Q2.49023-0.859375 2.49023-0.634766Q2.49023-0.263672 2.70996-0.0537109Q2.92969 0.15625 3.31055 0.15625ZM6.00586-5.51758L8.37891-12.0898L8.42773-12.0898L10.8008-5.51758Z"/>
  </g>
  <line style="fill:none;stroke:#00AEEF;stroke-width:0.5;opacity:1.0;" x1="793.197" x2="793.197" y1="1919" y2="1933"/>
  <text style="stroke:none;fill:black;font-family:sans-serif;font-size:13;font-weight:bold;" transform="matrix(1 0 0 1 776 1953)">Margins</text>
  <text style="stroke:none;fill:black;font-family:sans-serif;font-size:13;" transform="matrix(1 0 0 1 776 1971)">Leading and trailing margins on the left and right side of each symbol</text>
  <text style="stroke:none;fill:black;font-family:sans-serif;font-size:13;" transform="matrix(1 0 0 1 776 1989)">can be adjusted by modifying the x-location of the margin guidelines.</text>
  <text style="stroke:none;fill:black;font-family:sans-serif;font-size:13;" transform="matrix(1 0 0 1 776 2007)">Modifications are automatically applied proportionally to all</text>
  <text style="stroke:none;fill:black;font-family:sans-serif;font-size:13;" transform="matrix(1 0 0 1 776 2025)">scales and weights.</text>
  <g transform="matrix(1 0 0 1 1289 1933)">
   <path d="M2.8418 1.86523L4.54102 3.57422Q5.18555 4.22852 5.90332 4.17969Q6.62109 4.13086 7.31445 3.35938L18.0078-8.42773L17.041-9.4043L6.42578 2.27539Q6.16211 2.57812 5.89355 2.61719Q5.625 2.65625 5.27344 2.30469L4.10156 1.14258Q3.75 0.791016 3.79395 0.522461Q3.83789 0.253906 4.14062-0.0195312L15.6152-10.8203L14.6387-11.7871L3.04688-0.898438Q2.30469-0.214844 2.25098 0.498047Q2.19727 1.21094 2.8418 1.86523ZM9.25781-16.3281Q8.94531-16.0254 8.90625-15.6348Q8.86719-15.2441 9.04297-14.9512Q9.21875-14.6777 9.55566-14.541Q9.89258-14.4043 10.3809-14.5215Q11.4746-14.7754 12.5977-14.7314Q13.7207-14.6875 14.7949-13.9844L14.209-12.5293Q13.9551-11.9043 14.0674-11.4404Q14.1797-10.9766 14.5801-10.5664L16.875-8.25195Q17.2363-7.88086 17.5781-7.82227Q17.9199-7.76367 18.3398-7.8418L19.4043-8.03711L20.0684-7.36328L20.0293-6.80664Q20-6.43555 20.1221-6.12305Q20.2441-5.81055 20.6055-5.44922L21.3672-4.70703Q21.7285-4.3457 22.1533-4.33105Q22.5781-4.31641 22.9297-4.66797L25.8398-7.58789Q26.1914-7.93945 26.1816-8.35449Q26.1719-8.76953 25.8105-9.13086L25.0391-9.89258Q24.6875-10.2539 24.3799-10.3857Q24.0723-10.5176 23.7109-10.4883L23.1348-10.4395L22.4902-11.0742L22.7344-12.1973Q22.832-12.6172 22.6953-12.9834Q22.5586-13.3496 22.1191-13.7891L19.9219-15.9766Q18.6719-17.2168 17.2607-17.8369Q15.8496-18.457 14.4189-18.4814Q12.9883-18.5059 11.665-17.959Q10.3418-17.4121 9.25781-16.3281ZM10.752-15.957Q11.6602-16.6211 12.7002-16.9043Q13.7402-17.1875 14.8047-17.085Q15.8691-16.9824 16.8701-16.5137Q17.8711-16.0449 18.7012-15.2051L21.1328-12.793Q21.3086-12.6172 21.3525-12.4512Q21.3965-12.2852 21.3379-12.0312L21.0156-10.5469L22.5195-9.0625L23.5059-9.12109Q23.6914-9.13086 23.7891-9.09668Q23.8867-9.0625 24.0332-8.91602L24.6094-8.33984L22.168-5.89844L21.5918-6.47461Q21.4453-6.62109 21.4062-6.71875Q21.3672-6.81641 21.377-7.01172L21.4453-7.98828L19.9512-9.47266L18.4277-9.21875Q18.1836-9.16992 18.042-9.2041Q17.9004-9.23828 17.7148-9.41406L15.7129-11.416Q15.5176-11.5918 15.4932-11.7529Q15.4688-11.9141 15.5859-12.1875L16.4648-14.2773Q15.293-15.3711 13.8281-15.791Q12.3633-16.2109 10.8398-15.7617Q10.7227-15.7324 10.6885-15.8057Q10.6543-15.8789 10.752-15.957Z"/>
  </g>
  <text style="stroke:none;fill:black;font-family:sans-serif;font-size:13;font-weight:bold;" transform="matrix(1 0 0 1 1289 1953)">Exporting</text>
  <text style="stroke:none;fill:black;font-family:sans-serif;font-size:13;" transform="matrix(1 0 0 1 1289 1971)">Symbols should be outlined when exporting to ensure the</text>
  <text style="stroke:none;fill:black;font-family:sans-serif;font-size:13;" transform="matrix(1 0 0 1 1289 1989)">design is preserved when submitting to Xcode.</text>
  <text id="template-version" style="stroke:none;fill:black;font-family:sans-serif;font-size:13;text-anchor:end;" transform="matrix(1 0 0 1 3036 1933)">Template v.3.0</text>
  <text style="stroke:none;fill:black;font-family:sans-serif;font-size:13;text-anchor:end;" transform="matrix(1 0 0 1 3036 1951)">Requires Xcode 13 or greater</text>
  <text id="descriptive-name" style="stroke:none;fill:black;font-family:sans-serif;font-size:13;text-anchor:end;" transform="matrix(1 0 0 1 3036 1969)">Generated from clock</text>
  <text style="stroke:none;fill:black;font-family:sans-serif;font-size:13;text-anchor:end;" transform="matrix(1 0 0 1 3036 1987)">Typeset at 100 points</text>
  <text style="stroke:none;fill:black;font-family:sans-serif;font-size:13;" transform="matrix(1 0 0 1 263 726)">Small</text>
  <text style="stroke:none;fill:black;font-family:sans-serif;font-size:13;" transform="matrix(1 0 0 1 263 1156)">Medium</text>
  <text style="stroke:none;fill:black;font-family:sans-serif;font-size:13;" transform="matrix(1 0 0 1 263 1586)">Large</text>
 </g>
 <g id="Guides">
  <g id="H-reference" style="fill:#27AAE1;stroke:none;" transform="matrix(1 0 0 1 339 696)">
   <path d="M0.993347 0L3.6377 0L29.3282-67.1326L30.0301-67.1326L30.0301-70.459L28.1227-70.459ZM11.6882-24.4797L46.9818-24.4797L46.2311-26.7288L12.4382-26.7288ZM55.1193 0L57.7637 0L30.6381-70.459L29.4327-70.459L29.4327-67.1326Z"/>
  </g>
  <line id="Baseline-S" style="fill:none;stroke:#27AAE1;opacity:1;stroke-width:0.5;" x1="263" x2="3036" y1="696" y2="696"/>
  <line id="Capline-S" style="fill:none;stroke:#27AAE1;opacity:1;stroke-width:0.5;" x1="263" x2="3036" y1="625.541" y2="625.541"/>
  <g id="H-reference" style="fill:#27AAE1;stroke:none;" transform="matrix(1 0 0 1 339 1126)">
   <path d="M0.993347 0L3.6377 0L29.3282-67.1326L30.0301-67.1326L30.0301-70.459L28.1227-70.459ZM11.6882-24.4797L46.9818-24.4797L46.2311-26.7288L12.4382-26.7288ZM55.1193 0L57.7637 0L30.6381-70.459L29.4327-70.459L29.4327-67.1326Z"/>
  </g>
  <line id="Baseline-M" style="fill:none;stroke:#27AAE1;opacity:1;stroke-width:0.5;" x1="263" x2="3036" y1="1126" y2="1126"/>
  <line id="Capline-M" style="fill:none;stroke:#27AAE1;opacity:1;stroke-width:0.5;" x1="263" x2="3036" y1="1055.54" y2="1055.54"/>
  <g id="H-reference" style="fill:#27AAE1;stroke:none;" transform="matrix(1 0 0 1 339 1556)">
   <path d="M0.993347 0L3.6377 0L29.3282-67.1326L30.0301-67.1326L30.0301-70.459L28.1227-70.459ZM11.6882-24.4797L46.9818-24.4797L46.2311-26.7288L12.4382-26.7288ZM55.1193 0L57.7637 0L30.6381-70.459L29.4327-70.459L29.4327-67.1326Z"/>
  </g>
  <line id="Baseline-L" style="fill:none;stroke:#27AAE1;opacity:1;stroke-width:0.5;" x1="263" x2="3036" y1="1556" y2="1556"/>
  <line id="Capline-L" style="fill:none;stroke:#27AAE1;opacity:1;stroke-width:0.5;" x1="263" x2="3036" y1="1485.54" y2="1485.54"/>
  <line id="left-margin-Ultralight-S" style="fill:none;stroke:#00AEEF;stroke-width:0.5;opacity:1.0;" x1="515.649" x2="515.649" y1="600.784" y2="720.121"/>
  <line id="right-margin-Ultralight-S" style="fill:none;stroke:#00AEEF;stroke-width:0.5;opacity:1.0;" x1="603.773" x2="603.773" y1="600.784" y2="720.121"/>
  <line id="left-margin-Regular-S" style="fill:none;stroke:#00AEEF;stroke-width:0.5;opacity:1.0;" x1="1403.58" x2="1403.58" y1="600.784" y2="720.121"/>
  <line id="right-margin-Regular-S" style="fill:none;stroke:#00AEEF;stroke-width:0.5;opacity:1.0;" x1="1496.11" x2="1496.11" y1="600.784" y2="720.121"/>
  <line id="left-margin-Black-S" style="fill:none;stroke:#00AEEF;stroke-width:0.5;opacity:1.0;" x1="2884.57" x2="2884.57" y1="600.784" y2="720.121"/>
  <line id="right-margin-Black-S" style="fill:none;stroke:#00AEEF;stroke-width:0.5;opacity:1.0;" x1="2982.23" x2="2982.23" y1="600.784" y2="720.121"/>
 </g>
 <g id="Symbols">
  <g id="Black-S" transform="matrix(1 0 0 1 2884.57 696)">
   <path class="multicolor-0:secondaryLabelColor hierarchical-0:primary SFSymbolsPreview8A8A8E" d="M71.2952-44.8242C69.6138-44.8242 68.2502-46.1896 68.2502-47.8711C68.2502-49.5526 69.6138-50.916 71.2952-50.916C72.9768-50.916 74.3401-49.5526 74.3401-47.8711C74.3401-46.1896 72.9768-44.8242 71.2952-44.8242ZM61.6018-54.6309C59.9202-54.6309 58.5588-55.9922 58.5588-57.6758C58.5588-59.3571 59.9202-60.7227 61.6018-60.7227C63.2832-60.7227 64.6467-59.3571 64.6467-57.6758C64.6467-55.9922 63.2832-54.6309 61.6018-54.6309ZM25.5667-19.0176C23.8853-19.0176 22.5198-20.3809 22.5198-22.0625C22.5198-23.7439 23.8853-25.1055 25.5667-25.1055C27.248-25.1055 28.6116-23.7439 28.6116-22.0625C28.6116-20.3809 27.248-19.0176 25.5667-19.0176ZM35.5276-54.7852C33.8459-54.7852 32.4827-56.1487 32.4827-57.8301C32.4827-59.5115 33.8459-60.875 35.5276-60.875C37.209-60.875 38.5706-59.5115 38.5706-57.8301C38.5706-56.1487 37.209-54.7852 35.5276-54.7852ZM25.719-45.0977C24.0376-45.0977 22.6741-46.4591 22.6741-48.1406C22.6741-49.8221 24.0376-51.1855 25.719-51.1855C27.4004-51.1855 28.7659-49.8221 28.7659-48.1406C28.7659-46.4591 27.4004-45.0977 25.719-45.0977ZM48.428-5.66602C46.7466-5.66602 45.387-7.03125 45.387-8.71289C45.387-10.3944 46.7466-11.7539 48.428-11.7539C50.1096-11.7539 51.4749-10.3944 51.4749-8.71289C51.4749-7.03125 50.1096-5.66602 48.428-5.66602ZM35.2561-9.21094C33.5728-9.21094 32.2112-10.5762 32.2112-12.2578C32.2112-13.9393 33.5728-15.3008 35.2561-15.3008C36.9358-15.3008 38.2991-13.9393 38.2991-12.2578C38.2991-10.5762 36.9358-9.21094 35.2561-9.21094ZM71.137-18.75C69.4556-18.75 68.0959-20.1095 68.0959-21.791C68.0959-23.4727 69.4556-24.8359 71.137-24.8359C72.8186-24.8359 74.1838-23.4727 74.1838-21.791C74.1838-20.1095 72.8186-18.75 71.137-18.75ZM74.6838-31.9219C73.0022-31.9219 71.6409-33.2833 71.6409-34.9648C71.6409-36.6465 73.0022-38.0098 74.6838-38.0098C76.3652-38.0098 77.7288-36.6465 77.7288-34.9648C77.7288-33.2833 76.3652-31.9219 74.6838-31.9219ZM22.178-31.9219C20.4966-31.9219 19.1331-33.2833 19.1331-34.9648C19.1331-36.6465 20.4966-38.0098 22.178-38.0098C23.8596-38.0098 25.219-36.6465 25.219-34.9648C25.219-33.2833 23.8596-31.9219 22.178-31.9219ZM48.428-58.1758C46.7466-58.1758 45.387-59.5371 45.387-61.2188C45.387-62.9001 46.7466-64.2637 48.428-64.2637C50.1096-64.2637 51.4749-62.9001 51.4749-61.2188C51.4749-59.5371 50.1096-58.1758 48.428-58.1758ZM61.3323-9.05859C59.6509-9.05859 58.2893-10.4221 58.2893-12.1035C58.2893-13.7852 59.6509-15.1465 61.3323-15.1465C63.0139-15.1465 64.3772-13.7852 64.3772-12.1035C64.3772-10.4221 63.0139-9.05859 61.3323-9.05859Z"/>
   <path class="multicolor-1:labelColor hierarchical-1:primary SFSymbolsPreview212121" d="M48.4299 7C25.2715 7 6.42993-11.8408 6.42993-35C6.42993-58.1609 25.2715-77 48.4299-77C71.5884-77 90.4299-58.1609 90.4299-35C90.4299-11.8389 71.5884 7 48.4299 7ZM48.4299-1.77344C66.7483-1.77344 81.6526-16.6812 81.6526-35C81.6526-53.3187 66.7483-68.2227 48.4299-68.2227C30.1116-68.2227 15.2053-53.3187 15.2053-35C15.2053-16.6812 30.1116-1.77344 48.4299-1.77344Z"/>
   <path class="multicolor-2:labelColor hierarchical-2:primary SFSymbolsPreview212121" d="M59.1838-19.2871L47.3401-32.9277C47.0471-33.0648 46.7751-33.2633 46.5432-33.5234C45.6472-34.5282 45.6821-36.0802 46.6213-36.9688L70.6858-56.3789L51.0315-34.5918L62.1135-21.834L59.1838-19.2871Z"/>
  </g>
  <g id="Regular-S" transform="matrix(1 0 0 1 1403.58 696)">
   <path class="multicolor-0:secondaryLabelColor hierarchical-0:primary SFSymbolsPreview8A8A8E" d="M67.4239-44.7402C65.8425-44.7402 64.5587-46.024 64.5587-47.6055C64.5587-49.1869 65.8425-50.4688 67.4239-50.4688C69.0054-50.4688 70.2872-49.1869 70.2872-47.6055C70.2872-46.024 69.0054-44.7402 67.4239-44.7402ZM58.3068-53.9629C56.7253-53.9629 55.4454-55.2428 55.4454-56.8262C55.4454-58.4075 56.7253-59.6914 58.3068-59.6914C59.8881-59.6914 61.172-58.4075 61.172-56.8262C61.172-55.2428 59.8881-53.9629 58.3068-53.9629ZM24.4161-20.4688C22.8347-20.4688 21.5529-21.7524 21.5529-23.334C21.5529-24.9153 22.8347-26.1953 24.4161-26.1953C25.9974-26.1953 27.2814-24.9153 27.2814-23.334C27.2814-21.7524 25.9974-20.4688 24.4161-20.4688ZM33.7872-54.1074C32.2058-54.1074 30.922-55.3894 30.922-56.9707C30.922-58.5521 32.2058-59.8359 33.7872-59.8359C35.3685-59.8359 36.6486-58.5521 36.6486-56.9707C36.6486-55.3894 35.3685-54.1074 33.7872-54.1074ZM24.5607-44.9961C22.9794-44.9961 21.6974-46.276 21.6974-47.8574C21.6974-49.4388 22.9794-50.7207 24.5607-50.7207C26.1421-50.7207 27.4259-49.4388 27.4259-47.8574C27.4259-46.276 26.1421-44.9961 24.5607-44.9961ZM45.9181-7.91211C44.3368-7.91211 43.0568-9.1958 43.0568-10.7773C43.0568-12.3588 44.3368-13.6387 45.9181-13.6387C47.4995-13.6387 48.7833-12.3588 48.7833-10.7773C48.7833-9.1958 47.4995-7.91211 45.9181-7.91211ZM33.5314-11.2461C31.9482-11.2461 30.6661-12.5298 30.6661-14.1113C30.6661-15.6927 31.9482-16.9727 33.5314-16.9727C35.1111-16.9727 36.3927-15.6927 36.3927-14.1113C36.3927-12.5298 35.1111-11.2461 33.5314-11.2461ZM67.2755-20.2168C65.6942-20.2168 64.4142-21.4967 64.4142-23.0781C64.4142-24.6597 65.6942-25.9414 67.2755-25.9414C68.8571-25.9414 70.1407-24.6597 70.1407-23.0781C70.1407-21.4967 68.8571-20.2168 67.2755-20.2168ZM70.6114-32.6055C69.03-32.6055 67.7482-33.8854 67.7482-35.4668C67.7482-37.0483 69.03-38.3301 70.6114-38.3301C72.1929-38.3301 73.4747-37.0483 73.4747-35.4668C73.4747-33.8854 72.1929-32.6055 70.6114-32.6055ZM21.2306-32.6055C19.6492-32.6055 18.3654-33.8854 18.3654-35.4668C18.3654-37.0483 19.6492-38.3301 21.2306-38.3301C22.812-38.3301 24.0919-37.0483 24.0919-35.4668C24.0919-33.8854 22.812-32.6055 21.2306-32.6055ZM45.9181-57.2969C44.3368-57.2969 43.0568-58.5767 43.0568-60.1582C43.0568-61.7395 44.3368-63.0215 45.9181-63.0215C47.4995-63.0215 48.7833-61.7395 48.7833-60.1582C48.7833-58.5767 47.4995-57.2969 45.9181-57.2969ZM58.0548-11.1016C56.4735-11.1016 55.1935-12.3855 55.1935-13.9668C55.1935-15.5483 56.4735-16.8281 58.0548-16.8281C59.6362-16.8281 60.9181-15.5483 60.9181-13.9668C60.9181-12.3855 59.6362-11.1016 58.0548-11.1016Z"/>
   <path class="multicolor-1:labelColor hierarchical-1:primary SFSymbolsPreview212121" d="M45.92 4C24.14 4 6.42004-13.7194 6.42004-35.5C6.42004-57.2823 24.14-75 45.92-75C67.7001-75 85.42-57.2823 85.42-35.5C85.42-13.7175 67.7001 4 45.92 4ZM45.92-4.25C63.1481-4.25 77.1661-18.2716 77.1661-35.5C77.1661-52.7284 63.1481-66.7461 45.92-66.7461C28.692-66.7461 14.672-52.7284 14.672-35.5C14.672-18.2716 28.692-4.25 45.92-4.25Z"/>
   <path class="multicolor-2:labelColor hierarchical-2:primary SFSymbolsPreview212121" d="M56.0333-20.7227L44.8947-33.5508C44.6191-33.6797 44.3647-33.8667 44.1466-34.1113C43.304-35.0563 43.3356-36.5159 44.2189-37.3516L66.8517-55.6055L48.3654-35.1152L58.7892-23.1172L56.0333-20.7227Z"/>
  </g>
  <g id="Ultralight-S" transform="matrix(1 0 0 1 515.649 696)">
   <path class="multicolor-0:secondaryLabelColor hierarchical-0:primary SFSymbolsPreview8A8A8E" d="M64.3334-44.0879C62.8381-44.0879 61.6264-45.2996 61.6264-46.7949C61.6264-48.2902 62.8381-49.5039 64.3334-49.5039C65.8287-49.5039 67.0424-48.2902 67.0424-46.7949C67.0424-45.2996 65.8287-44.0879 64.3334-44.0879ZM55.7143-52.8086C54.219-52.8086 53.0092-54.0186 53.0092-55.5156C53.0092-57.011 54.219-58.2246 55.7143-58.2246C57.2097-58.2246 58.4213-57.011 58.4213-55.5156C58.4213-54.0186 57.2097-52.8086 55.7143-52.8086ZM23.6674-21.1367C22.1721-21.1367 20.9604-22.3502 20.9604-23.8457C20.9604-25.3409 22.1721-26.5508 23.6674-26.5508C25.1627-26.5508 26.3764-25.3409 26.3764-23.8457C26.3764-22.3502 25.1627-21.1367 23.6674-21.1367ZM32.5268-52.9453C31.0314-52.9453 29.8198-54.1571 29.8198-55.6523C29.8198-57.1477 31.0314-58.3613 32.5268-58.3613C34.0221-58.3613 35.2338-57.1477 35.2338-55.6523C35.2338-54.1571 34.0221-52.9453 32.5268-52.9453ZM23.8041-44.3281C22.3088-44.3281 21.0971-45.5398 21.0971-47.0352C21.0971-48.5305 22.3088-49.7422 23.8041-49.7422C25.2995-49.7422 26.5131-48.5305 26.5131-47.0352C26.5131-45.5398 25.2995-44.3281 23.8041-44.3281ZM43.9995-9.26367C42.5041-9.26367 41.2944-10.4773 41.2944-11.9727C41.2944-13.468 42.5041-14.6777 43.9995-14.6777C45.4948-14.6777 46.7084-13.468 46.7084-11.9727C46.7084-10.4773 45.4948-9.26367 43.9995-9.26367ZM32.2866-12.418C30.7896-12.418 29.5776-13.6296 29.5776-15.125C29.5776-16.6204 30.7896-17.8301 32.2866-17.8301C33.7802-17.8301 34.9916-16.6204 34.9916-15.125C34.9916-13.6296 33.7802-12.418 32.2866-12.418ZM64.1948-20.8984C62.6995-20.8984 61.4897-22.108 61.4897-23.6035C61.4897-25.0989 62.6995-26.3125 64.1948-26.3125C65.6902-26.3125 66.9037-25.0989 66.9037-23.6035C66.9037-22.108 65.6902-20.8984 64.1948-20.8984ZM67.3471-32.6133C65.8518-32.6133 64.642-33.8231 64.642-35.3184C64.642-36.8138 65.8518-38.0273 67.3471-38.0273C68.8425-38.0273 70.0561-36.8138 70.0561-35.3184C70.0561-33.8231 68.8425-32.6133 67.3471-32.6133ZM20.6557-32.6133C19.1603-32.6133 17.9467-33.8231 17.9467-35.3184C17.9467-36.8138 19.1603-38.0273 20.6557-38.0273C22.151-38.0273 23.3608-36.8138 23.3608-35.3184C23.3608-33.8231 22.151-32.6133 20.6557-32.6133ZM43.9995-55.9609C42.5041-55.9609 41.2944-57.1705 41.2944-58.666C41.2944-60.1613 42.5041-61.375 43.9995-61.375C45.4948-61.375 46.7084-60.1613 46.7084-58.666C46.7084-57.1705 45.4948-55.9609 43.9995-55.9609ZM55.4741-12.2812C53.9788-12.2812 52.769-13.493 52.769-14.9883C52.769-16.4838 53.9788-17.6934 55.4741-17.6934C56.9694-17.6934 58.183-16.4838 58.183-14.9883C58.183-13.493 56.9694-12.2812 55.4741-12.2812Z"/>
   <path class="multicolor-1:labelColor hierarchical-1:primary SFSymbolsPreview212121" d="M44.0014 2C23.4069 2 6.65179-14.7544 6.65179-35.3496C6.65179-55.9463 23.4069-72.6992 44.0014-72.6992C64.596-72.6992 81.351-55.9463 81.351-35.3496C81.351-14.7528 64.596 2 44.0014 2ZM44.0014-5.80273C60.2917-5.80273 73.5463-19.0588 73.5463-35.3496C73.5463-51.6401 60.2917-64.8945 44.0014-64.8945C27.7111-64.8945 14.4545-51.6401 14.4545-35.3496C14.4545-19.0588 27.7111-5.80273 44.0014-5.80273Z"/>
   <path class="multicolor-2:labelColor hierarchical-2:primary SFSymbolsPreview212121" d="M53.5639-21.377L43.0307-33.5078C42.7701-33.6296 42.53-33.8058 42.3237-34.0371C41.5268-34.9305 41.5568-36.3114 42.392-37.1016L63.7924-54.3613L46.3139-34.9863L56.1694-23.6406L53.5639-21.377Z"/>
  </g>
 </g>
</svg>
